<svg width="1200" height="300" viewBox="0 0 1200 300" xmlns="http://www.w3.org/2000/svg">
  <defs>
    <linearGradient id="bg" x1="0" y1="0" x2="1" y2="1">
      <stop offset="0%" stop-color="#0d1117"/>
      <stop offset="100%" stop-color="#111927"/>
    </linearGradient>
    <linearGradient id="barFade" x1="0" y1="1" x2="0" y2="0">
      <stop offset="0%" stop-color="#1f6feb" stop-opacity="0.85"/>
      <stop offset="100%" stop-color="#58a6ff" stop-opacity="0.55"/>
    </linearGradient>
    <linearGradient id="lineFade" x1="0" y1="0" x2="1" y2="0">
      <stop offset="0%" stop-color="#58a6ff" stop-opacity="0"/>
      <stop offset="15%" stop-color="#58a6ff" stop-opacity="1"/>
      <stop offset="100%" stop-color="#58a6ff" stop-opacity="1"/>
    </linearGradient>
  </defs>

  <rect x="0" y="0" width="1200" height="300" fill="url(#bg)"/>

  <g opacity="0.10">
    <circle cx="60" cy="40" r="1.4" fill="#58a6ff"/>
    <circle cx="90" cy="40" r="1.4" fill="#58a6ff"/>
    <circle cx="120" cy="40" r="1.4" fill="#58a6ff"/>
    <circle cx="60" cy="70" r="1.4" fill="#58a6ff"/>
    <circle cx="90" cy="70" r="1.4" fill="#58a6ff"/>
    <circle cx="120" cy="70" r="1.4" fill="#58a6ff"/>
    <circle cx="60" cy="100" r="1.4" fill="#58a6ff"/>
    <circle cx="90" cy="100" r="1.4" fill="#58a6ff"/>
    <circle cx="120" cy="100" r="1.4" fill="#58a6ff"/>
  </g>

  <g>
    <rect x="860" y="210" width="46" height="55" rx="4" fill="url(#barFade)"/>
    <rect x="920" y="175" width="46" height="90" rx="4" fill="url(#barFade)"/>
    <rect x="980" y="140" width="46" height="125" rx="4" fill="url(#barFade)"/>
    <rect x="1040" y="100" width="46" height="165" rx="4" fill="url(#barFade)"/>
    <rect x="1100" y="60" width="46" height="205" rx="4" fill="url(#barFade)"/>
  </g>

  <polyline points="860,205 920,170 980,135 1040,95 1123,55"
            fill="none" stroke="url(#lineFade)" stroke-width="3" stroke-linecap="round" stroke-linejoin="round"/>
  <circle cx="1123" cy="55" r="6" fill="#58a6ff"/>

  <text x="70" y="128" font-family="Segoe UI, Helvetica, Arial, sans-serif" font-size="54" font-weight="700" fill="#f0f6fc">Asghar Hussain</text>
  <rect x="72" y="148" width="140" height="4" rx="2" fill="#58a6ff"/>
  <text x="70" y="188" font-family="Segoe UI, Helvetica, Arial, sans-serif" font-size="24" font-weight="600" fill="#58a6ff">Data &amp; Business Analyst</text>
  <text x="70" y="222" font-family="Segoe UI, Helvetica, Arial, sans-serif" font-size="17" fill="#8b949e">Power BI &#183; SQL &#183; DAX &#183; PostgreSQL &#183; Excel</text>
</svg>
